HIERARCHY
ROOT Pelvis
{
	OFFSET 0.000000 0.000000 0.000000
	CHANNELS 6 Xposition Yposition Zposition Zrotation Yrotation Xrotation 
	JOINT Left_hip
	{
		OFFSET 0.067986 -0.089946 -0.007639
		CHANNELS 3 Zrotation Yrotation Xrotation
		JOINT Left_knee
		{
			OFFSET 0.036308 -0.388288 -0.004016
			CHANNELS 3 Zrotation Yrotation Xrotation
			JOINT Left_ankle
			{
				OFFSET -0.012264 -0.413250 -0.042878
				CHANNELS 3 Zrotation Yrotation Xrotation
				JOINT Left_foot
				{
					OFFSET 0.024043 -0.058563 0.118570
					CHANNELS 3 Zrotation Yrotation Xrotation
					End Site
					{
						OFFSET 0.000000 0.000000 0.000000
					}
				}
			}
		}
	}
	JOINT Right_hip
	{
		OFFSET -0.065648 -0.089374 -0.003858
		CHANNELS 3 Zrotation Yrotation Xrotation
		JOINT Right_knee
		{
			OFFSET -0.042132 -0.395021 -0.006361
			CHANNELS 3 Zrotation Yrotation Xrotation
			JOINT Right_ankle
			{
				OFFSET 0.014805 -0.413264 -0.041054
				CHANNELS 3 Zrotation Yrotation Xrotation
				JOINT Right_foot
				{
					OFFSET -0.021758 -0.049013 0.121832
					CHANNELS 3 Zrotation Yrotation Xrotation
					End Site
					{
						OFFSET 0.000000 0.000000 0.000000
					}
				}
			}
		}
	}
	JOINT Spine1
	{
		OFFSET -0.002755 0.104406 -0.022277
		CHANNELS 3 Zrotation Yrotation Xrotation
		JOINT Spine2
		{
			OFFSET 0.004136 0.129393 -0.002186
			CHANNELS 3 Zrotation Yrotation Xrotation
			JOINT Spine3
			{
				OFFSET 0.001906 0.049304 0.025578
				CHANNELS 3 Zrotation Yrotation Xrotation
				JOINT Neck
				{
					OFFSET -0.004620 0.210958 -0.044063
					CHANNELS 3 Zrotation Yrotation Xrotation
					JOINT Head
					{
						OFFSET 0.003833 0.067393 0.052435
						CHANNELS 3 Zrotation Yrotation Xrotation
						End Site
						{
							OFFSET 0.000000 0.000000 0.000000
						}
					}
				}
				JOINT Left_collar
				{
					OFFSET 0.070771 0.116689 -0.037192
					CHANNELS 3 Zrotation Yrotation Xrotation
					JOINT Left_shoulder
					{
						OFFSET 0.080652 0.031596 -0.005617
						CHANNELS 3 Zrotation Yrotation Xrotation
						JOINT Left_elbow
						{
							OFFSET 0.262654 -0.015020 -0.027939
							CHANNELS 3 Zrotation Yrotation Xrotation
							JOINT Left_wrist
							{
								OFFSET 0.250438 0.010062 -0.000990
								CHANNELS 3 Zrotation Yrotation Xrotation
								JOINT Left_palm
								{
									OFFSET 0.081198 -0.010037 -0.013706
									CHANNELS 3 Zrotation Yrotation Xrotation
									End Site
									{
										OFFSET 0.000000 0.000000 0.000000
									}
								}
							}
						}
					}
				}
				JOINT Right_collar
				{
					OFFSET -0.072972 0.115556 -0.040762
					CHANNELS 3 Zrotation Yrotation Xrotation
					JOINT Right_shoulder
					{
						OFFSET -0.082917 0.031841 -0.006673
						CHANNELS 3 Zrotation Yrotation Xrotation
						JOINT Right_elbow
						{
							OFFSET -0.252882 -0.013790 -0.020410
							CHANNELS 3 Zrotation Yrotation Xrotation
							JOINT Right_wrist
							{
								OFFSET -0.255570 0.009163 -0.005138
								CHANNELS 3 Zrotation Yrotation Xrotation
								JOINT Right_palm
								{
									OFFSET -0.080804 -0.007282 -0.010415
									CHANNELS 3 Zrotation Yrotation Xrotation
									End Site
									{
										OFFSET 0.000000 0.000000 0.000000
									}
								}
							}
						}
					}
				}
			}
		}
	}
}
MOTION
Frames: 6
Frame Time: 0.100000
0.000000 0.000000 0.000000 174.627620 23.820348 -13.087607 9.633055 5.697057 1.708619 -3.003588 -20.500559 -0.956005 -5.865985 14.834133 -5.029612 2.732216 -1.837092 -6.214941 -6.686462 -5.481237 0.869580 3.671092 13.461493 1.375479 7.486114 -14.874556 -6.422928 -4.098539 5.807549 2.368539 1.347664 1.471133 5.036020 0.398506 -3.272726 -0.594862 2.018314 1.130858 3.382980 -6.697961 0.946980 2.662389 7.593147 2.789506 -21.297250 -2.064780 1.895054 -8.186184 0.578468 3.368978 -15.254302 1.486640 -6.153295 -6.537222 0.707223 -6.387902 23.783940 -6.313192 -7.770399 -7.502345 0.214545 -0.207908 -3.082540 0.773878 -10.730145 -21.375420 -1.321494 7.724375 -0.536934 2.116307 6.601319 26.407919 11.007128 7.432705 -6.555023 
-0.000765 -0.000284 0.001654 174.600389 23.962006 -13.110459 9.639648 5.681764 1.819858 -2.994310 -20.573830 -0.993519 -5.873931 14.806990 -5.067885 2.743884 -1.841717 -6.216097 -6.704043 -5.519658 1.030923 3.680855 13.425821 1.359523 7.449013 -14.922776 -6.500664 -4.033641 5.794814 2.407633 1.381612 1.490385 4.914247 0.396426 -3.269039 -0.564664 1.992588 1.136485 3.347991 -6.690763 0.851101 2.750599 7.568955 2.684747 -21.167283 -2.087761 1.950427 -8.220840 0.617349 3.332263 -15.264475 1.490202 -6.119770 -6.456384 0.595056 -6.331320 23.982499 -6.328054 -7.802752 -7.535202 0.224035 -0.215869 -3.124297 0.692174 -10.741207 -21.337721 -1.293041 7.674094 -0.472316 2.298631 6.555715 26.465838 11.004178 7.469461 -6.570884 
-0.001489 -0.000478 0.003505 174.566257 24.079642 -13.146753 9.664005 5.642753 1.945119 -3.005462 -20.659584 -0.931034 -5.868241 14.765584 -5.180812 2.729641 -1.819600 -6.201091 -6.712804 -5.542816 1.266180 3.677484 13.361687 1.326726 7.383823 -14.919045 -6.614128 -3.900341 5.753084 2.458647 1.347609 1.528922 4.716826 0.415524 -3.249689 -0.439403 1.974993 1.129977 3.289765 -6.609944 0.812300 2.862143 7.577799 2.533007 -21.153403 -2.133144 2.051187 -8.204344 0.596950 3.335282 -15.260919 1.524639 -6.081605 -6.438873 0.503193 -6.392948 24.131111 -6.308521 -7.772244 -7.558388 0.315399 -0.240404 -3.111195 0.759500 -10.778112 -21.277742 -1.309382 7.698156 -0.420852 2.441746 6.614617 26.442734 10.972045 7.440004 -6.501574 
-0.002363 -0.000606 0.004474 174.582239 24.198362 -13.187076 9.614346 5.608623 2.053068 -3.030644 -20.743164 -0.904171 -5.857066 14.741009 -5.260267 2.761948 -1.807233 -6.147260 -6.786160 -5.572882 1.424390 3.663235 13.299127 1.342602 7.313837 -14.910119 -6.667869 -3.787831 5.697750 2.472316 1.345990 1.541080 4.640339 0.415120 -3.245320 -0.332694 1.947237 1.125141 3.245342 -6.595303 0.767894 2.970374 7.508122 2.488350 -21.120932 -2.249497 2.080304 -8.165266 0.551090 3.330150 -15.234844 1.551023 -5.972805 -6.494600 0.488065 -6.383225 24.189214 -6.325796 -7.769428 -7.558717 0.440906 -0.203670 -3.113125 0.756789 -10.699168 -21.249994 -1.305819 7.664000 -0.443833 2.531971 6.606205 26.508154 10.968623 7.434959 -6.484902 
-0.003015 -0.000580 0.004830 174.578922 24.336444 -13.222366 9.571261 5.563220 2.025184 -3.111465 -20.825949 -0.738766 -5.831376 14.712555 -5.355180 2.777303 -1.802158 -6.150042 -6.851678 -5.595199 1.482369 3.678250 13.234402 1.457429 7.312731 -14.930815 -6.751005 -3.827319 5.698284 2.439701 1.315858 1.558363 4.683265 0.438720 -3.253101 -0.238042 1.961831 1.128482 3.238768 -6.577614 0.718626 2.968483 7.541010 2.453776 -21.118748 -2.340687 2.085588 -8.115173 0.461816 3.347231 -15.241021 1.592171 -6.039267 -6.562907 0.438651 -6.374393 24.138770 -6.359811 -7.762062 -7.562609 0.556505 -0.141509 -3.092357 0.873732 -10.676331 -21.268075 -1.328732 7.687869 -0.646469 2.577139 6.607643 26.410241 10.983239 7.419731 -6.442829 
-0.003559 -0.000587 0.004632 174.553172 24.404505 -13.137715 9.533468 5.530575 1.928535 -3.113079 -20.818682 -0.779886 -5.801981 14.670856 -5.348345 2.771280 -1.766140 -6.095602 -6.871262 -5.609745 1.417013 3.656140 13.133066 1.411916 7.317678 -14.908808 -6.714330 -3.820057 5.686108 2.457459 1.286481 1.602026 4.713685 0.485378 -3.227869 -0.158727 1.991684 1.134912 3.226232 -6.561257 0.747045 3.010083 7.558153 2.414552 -21.126762 -2.445133 2.129317 -8.095966 0.326335 3.341664 -15.213316 1.641462 -5.983211 -6.750301 0.471720 -6.375785 24.043440 -6.376222 -7.739703 -7.561609 0.751251 -0.103959 -3.079823 1.055508 -10.583284 -21.216100 -1.378511 7.690306 -0.796058 2.584161 6.618643 26.319410 10.974338 7.396799 -6.419152 
